<?xml version="1.0" encoding="UTF-8" standalone="no"?>
<!-- Created with Inkscape (http://www.inkscape.org/) -->

<svg
   width="97.34935mm"
   height="108.64233mm"
   viewBox="0 0 97.34935 108.64233"
   version="1.1"
   id="svg334"
   xml:space="preserve"
   xmlns:inkscape="http://www.inkscape.org/namespaces/inkscape"
   xmlns:sodipodi="http://sodipodi.sourceforge.net/DTD/sodipodi-0.dtd"
   xmlns="http://www.w3.org/2000/svg"
   xmlns:svg="http://www.w3.org/2000/svg"><sodipodi:namedview
     id="namedview336"
     pagecolor="#ffffff"
     bordercolor="#000000"
     borderopacity="0.25"
     inkscape:showpageshadow="2"
     inkscape:pageopacity="0.0"
     inkscape:pagecheckerboard="0"
     inkscape:deskcolor="#d1d1d1"
     inkscape:document-units="mm"
     showgrid="false" /><defs
     id="defs331" /><g
     inkscape:label="Capa 1"
     inkscape:groupmode="layer"
     id="layer1"
     transform="translate(249.50204,-572.35789)"><g
       id="g4513"
       style="fill:#181818;fill-opacity:1"
       transform="translate(-306.77588,190.6572)"><path
         style="fill:#181818;fill-opacity:1;stroke-width:2.17122"
         d="m 371.1325,1624.443 -14.20372,-9.1388 6.63194,-4.3463 c 8.69493,-5.6984 9.09542,-14.976 0.91026,-21.0871 -5.10979,-3.815 -6.38685,-3.9545 -11.94169,-1.3045 -8.54269,4.0754 -10.00167,16.9985 -2.53916,22.491 4.93836,3.6346 4.89007,3.6635 -3.68087,2.2059 -11.22234,-1.9085 -39.22745,-15.9023 -56.52153,-28.2431 -25.19142,-17.9762 -47.94806,-47.4206 -60.47321,-78.2452 -6.13967,-15.1098 -12.19272,-42.557 -12.19272,-55.2872 v -8.8394 l 28.62621,0.6058 28.62621,0.6058 2.61766,15.1986 c 7.65234,44.4307 35.04685,79.6118 74.69297,95.9237 21.22274,8.7318 19.59342,13.1877 19.59342,-53.585 v -58.6229 h 28.22583 28.22584 v 59.8548 59.8548 l 4.88524,-1.4518 c 30.97909,-9.2068 64.30448,-37.3157 78.45811,-66.1769 4.48109,-9.1376 9.54943,-24.1788 11.52309,-34.1967 l 3.52336,-17.8842 h 29.14146 29.14146 l -1.14321,5.9709 c -0.62879,3.284 -1.80005,11.3446 -2.60281,17.9125 -3.50917,28.7105 -18.79118,63.2312 -39.51396,89.2585 -19.05662,23.9347 -41.34337,40.6684 -70.34175,52.8152 -14.43614,6.047 -19.18759,6.0235 -19.18759,-0.095 0,-1.78 -1.49068,-6.1191 -3.31259,-9.6423 -6.3509,-12.2813 -9.09951,-10.8158 -59.68023,31.8192 -2.74325,2.3124 -5.62425,1.2629 -17.48802,-6.3704 z"
         id="path4469"
         transform="scale(0.26458333)" /><path
         style="fill:#181818;fill-opacity:1;stroke-width:2.17122"
         d="m 221.46423,1647.9544 v -27.1402 h 58.62289 c 32.24258,0 58.62288,0.6612 58.62288,1.4694 0,0.8082 -3.05655,13.0213 -6.79234,27.1402 l -6.79235,25.6709 h -51.83054 -51.83054 z"
         id="path4471"
         transform="scale(0.26458333)" /><path
         style="fill:#181818;fill-opacity:1;stroke-width:2.17122"
         d="m 347.47115,1662.6102 c 0.23098,-4.9309 7.98408,-29.0139 9.35126,-29.0473 0.88895,-0.022 5.23797,2.1 9.66448,4.7151 l 8.04821,4.7546 -11.9417,10.579 c -11.51979,10.2053 -15.28369,12.445 -15.12225,8.9986 z"
         id="path4473"
         transform="scale(0.26458333)" /><path
         style="fill:#181818;fill-opacity:1;stroke-width:2.17122"
         d="m 425.06773,1658.6256 -25.46,-16.431 13.5183,-11.9054 c 21.64332,-19.061 19.47745,-19.9122 29.79966,11.7112 4.96679,15.2164 9.41124,28.8875 9.87655,30.3802 1.44499,4.6355 -1.50584,3.172 -27.73451,-13.755 z"
         id="path4475"
         transform="scale(0.26458333)" /><path
         style="fill:#181818;fill-opacity:1;stroke-width:2.17122"
         d="m 465.58668,1650.6685 c -4.45382,-13.4345 -8.54733,-25.6476 -9.09668,-27.1403 -0.78408,-2.1305 12.12123,-2.714 60.02758,-2.714 h 61.0264 v 27.1402 27.1403 h -51.92972 -51.92972 z"
         id="path4477"
         transform="scale(0.26458333)" /><path
         style="fill:#181818;fill-opacity:1;stroke-width:2.17122"
         d="m 217.8227,1836.3729 c 4.57131,-57.0055 41.03913,-113.0337 90.85304,-139.5842 10.16552,-5.4182 14.07932,-6.4269 20.36321,-5.248 6.61095,1.2402 9.30663,0.3758 17.9527,-5.7569 5.59554,-3.969 14.0819,-10.825 18.85858,-15.2356 4.77668,-4.4106 11.57801,-10.4485 15.11406,-13.4175 l 6.42919,-5.3982 17.45421,10.9621 c 44.44698,27.9148 58.81643,36.2835 62.30067,36.2835 2.06784,0 5.26155,-2.1442 7.09712,-4.7649 3.29795,-4.7085 3.43428,-4.7188 11.52203,-0.874 23.27424,11.0643 54.81756,40.51 69.69861,65.0636 15.88298,26.2068 28.59151,64.8953 28.59151,87.0409 v 7.6908 h -29.17841 -29.17839 l -1.41702,-10.3133 c -2.35391,-17.132 -5.34207,-26.9107 -13.36059,-43.722 -10.79801,-22.6386 -34.80515,-46.6953 -57.36649,-57.485 -28.00396,-13.3926 -25.82679,-17.7602 -25.82679,51.8118 v 59.7085 H 399.5041 371.27827 v -59.7085 c 0,-39.5225 -0.75615,-59.7085 -2.23664,-59.7085 -5.52734,0 -30.46055,12.1799 -42.59069,20.8055 -26.70826,18.992 -43.13882,46.3623 -49.42165,82.3274 l -2.65507,15.1985 -28.95306,0.6081 -28.95306,0.6081 z"
         id="path4479"
         transform="scale(0.26458333)" /></g></g></svg>
